<svg width="91" height="92" viewBox="0 0 91 92" fill="none" xmlns="http://www.w3.org/2000/svg">
  <g clip-path="url(#clip0_396_64)">
    <path d="M73.7576 25.3757C72.2368 23.8548 69.8041 22.9502 67.238 22.9502H67.1839L22.7538 23.28C18.2056 23.3142 14.6448 26.1001 14.6448 29.623V60.8066C14.6448 62.2734 15.2467 63.6412 16.3838 64.7602C16.4847 64.8611 16.5964 64.962 16.7279 65.0756C16.7496 65.1008 16.773 65.126 16.7946 65.1476C17.027 65.3894 17.3035 65.5845 17.6091 65.7225C19.1847 66.6743 20.9943 67.1684 22.8349 67.1497H22.9971L67.1785 66.4937C68.836 66.4872 70.465 66.062 71.9142 65.2576C72.3465 65.108 72.7331 64.8499 73.0368 64.5079L73.1125 64.4178C74.4514 63.2681 75.1956 61.7707 75.2083 60.1921L75.4587 29.3383C75.4538 28.5977 75.3008 27.8656 75.0086 27.1851C74.7165 26.5046 74.2911 25.8893 73.7576 25.3757ZM22.8169 28.6193L66.7731 28.2913C66.7082 28.34 66.6451 28.3922 66.5929 28.4463C54.8294 39.1898 46.2105 47.0321 43.9111 49.1026C42.0983 47.4195 35.1696 40.7251 22.8169 28.6103V28.6193ZM36.6923 49.5964C39.1466 51.9624 40.5324 53.2743 40.927 53.6004C41.8695 54.3825 42.8804 54.7771 43.9327 54.7771C44.021 54.7771 44.1129 54.7771 44.1958 54.7771C45.1856 54.7018 46.1212 54.2956 46.852 53.6238C47.3043 53.2328 49.6739 51.083 51.775 49.1729L65.29 61.185L24.0837 61.8085L36.6923 49.5964ZM70.0978 32.4521L69.8888 58.1451L55.734 45.5635C59.857 41.8063 64.9224 37.186 70.0978 32.4521ZM19.9734 58.3577V33.2901C24.8748 38.0906 29.387 42.4965 32.8667 45.877L19.9734 58.3577Z" fill="#FEF0D3"/>
    <path d="M11.4932 90.0998C8.51555 90.1172 5.6431 88.9999 3.45984 86.9751C2.37112 85.9803 1.5013 84.7698 0.905664 83.4206C0.310026 82.0714 0.0016032 80.6131 0 79.1382L0 11.6732C0 5.69593 5.10146 0.780074 11.3724 0.720608L78.4717 -0.00019183C81.5281 -0.0531705 84.4842 1.09083 86.7086 3.18755C87.7842 4.18785 88.6409 5.40017 89.2246 6.74807C89.8083 8.09597 90.1064 9.5502 90.1 11.019L89.7216 77.7723C89.7109 79.1997 89.4132 80.6104 88.8464 81.9205C88.2796 83.2306 87.4552 84.4133 86.4221 85.3984C84.2847 87.4565 81.4458 88.6267 78.4789 88.6726L11.758 90.0998H11.4932ZM11.4427 6.72307C8.60996 6.7519 6.307 8.97377 6.307 11.6732V79.1382C6.30785 79.8045 6.44717 80.4633 6.71612 81.0729C6.98507 81.6824 7.37778 82.2294 7.86933 82.6792C8.88688 83.6201 10.2321 84.1259 11.6175 84.0883L78.3401 82.663C81.1729 82.6035 83.4038 80.4411 83.4182 77.7399L83.793 10.992C83.7957 10.3286 83.6609 9.67184 83.3973 9.06305C83.1337 8.45426 82.7469 7.90665 82.2613 7.45468C81.2583 6.50419 79.9217 5.98637 78.5402 6.01308L11.4409 6.73388L11.4427 6.72307Z" fill="#FEF0D3"/>
  </g>
  <defs>
    <clipPath id="clip0_396_64">
      <rect width="90.1" height="92" fill="white"/>
    </clipPath>
  </defs>
</svg>