<svg width="60" height="62" viewBox="0 0 60 62" fill="none" xmlns="http://www.w3.org/2000/svg">
<g id="Capa_1" clip-path="url(#clip0_116_18)">
<path id="Vector" d="M7.6532 61.9995C5.65323 62.0064 3.73127 61.2358 2.30483 59.8552C1.57158 59.1542 0.989512 58.3148 0.593477 57.3871C0.197442 56.4593 -0.00440904 55.4624 9.98261e-06 54.4561V8.0315C0.00672627 6.04784 0.803996 4.14607 2.22021 2.73554C3.63643 1.32501 5.55836 0.518513 7.57233 0.489618L52.2566 -0.000504736C53.273 -0.0117015 54.2814 0.176483 55.2232 0.553076C56.165 0.929669 57.0212 1.48711 57.7419 2.19295C58.4627 2.89879 59.0335 3.73889 59.4212 4.66425C59.8089 5.5896 60.0056 6.58172 60 7.58274L59.7496 53.5172C59.74 55.482 58.9523 57.3657 57.5541 58.7673C56.1558 60.169 54.2575 60.978 52.2628 61.0223L7.83049 62.0041L7.6532 61.9995ZM7.62054 4.6251C6.71084 4.63833 5.84275 5.00262 5.20292 5.63963C4.5631 6.27664 4.20264 7.13549 4.19908 8.0315V54.4561C4.19764 54.9102 4.28902 55.36 4.46776 55.7787C4.64651 56.1973 4.90897 56.5763 5.23951 56.8929C5.56856 57.2108 5.95902 57.4604 6.38778 57.6269C6.81653 57.7934 7.27487 57.8736 7.73563 57.8625L52.168 56.8822C53.0701 56.8666 53.9299 56.5028 54.5625 55.8692C55.1951 55.2356 55.5499 54.3828 55.5506 53.4942L55.8009 7.55974C55.8032 7.10768 55.7142 6.6597 55.539 6.24186C55.3638 5.82402 55.1059 5.44468 54.7804 5.12595C54.4549 4.80722 54.0682 4.55546 53.6429 4.38533C53.2177 4.21519 52.7623 4.13009 52.3033 4.13497L7.62054 4.6251Z" fill="#FEF0D3"/>
<path id="Vector_2" d="M14.0762 48.929H14.028C13.4095 48.9169 12.8213 48.6634 12.3925 48.2243C11.9638 47.7851 11.7298 47.1962 11.7418 46.5871L12.2084 23.459C12.2145 23.1573 12.2808 22.8597 12.4037 22.5833C12.5266 22.3068 12.7036 22.0569 12.9245 21.8478C13.1455 21.6387 13.4061 21.4745 13.6915 21.3647C13.9769 21.2548 14.2815 21.2014 14.5879 21.2075C15.2063 21.2196 15.7946 21.4731 16.2233 21.9122C16.6521 22.3514 16.8861 22.9403 16.874 23.5494L16.4075 46.6775C16.3953 47.2785 16.1443 47.8509 15.7085 48.2719C15.2726 48.6928 14.6866 48.9287 14.0762 48.929Z" fill="#FEF0D3"/>
<path id="Vector_3" d="M14.619 17.6047C12.8103 17.6047 11.1073 16.4989 10.5925 14.8309C10.4307 14.2734 10.3985 13.6871 10.4984 13.1157C10.5983 12.5442 10.8277 12.0023 11.1695 11.5302C11.5438 10.9809 12.0374 10.5204 12.6146 10.1821C13.1919 9.84385 13.8382 9.63621 14.507 9.57425C16.3732 9.43028 18.1633 10.5208 18.7558 12.1781C18.931 12.6788 18.9993 13.2097 18.9564 13.7376C18.9136 14.2655 18.7606 14.779 18.507 15.246C18.2317 15.7762 17.8492 16.2453 17.383 16.6246C16.9169 17.0039 16.3769 17.2853 15.7963 17.4516C15.4128 17.5556 15.0167 17.6071 14.619 17.6047ZM14.605 13.0098C14.5771 13.0103 14.5494 13.0144 14.5225 13.022C14.4012 13.0557 14.3763 13.1017 14.367 13.1323C14.2921 13.3145 14.2921 13.5183 14.367 13.7005C14.367 13.7204 14.5428 14.1845 14.8833 14.16L14.7963 13.0879C14.7471 13.0439 14.685 13.0165 14.619 13.0098H14.605ZM14.7869 13.0741L14.874 14.1462C14.928 14.1446 14.9811 14.1315 15.0295 14.1079C15.0763 14.0112 15.103 13.9062 15.1081 13.7992C15.1132 13.6921 15.0965 13.5852 15.0591 13.4846C15.0078 13.3275 14.9162 13.1861 14.7931 13.0741H14.7869Z" fill="#FEF0D3"/>
<path id="Vector_4" d="M27.14 49.0822C26.5706 49.0818 26.0206 48.8784 25.5918 48.5095C25.1629 48.1407 24.8842 47.6313 24.8072 47.0757C24.787 46.9547 24.7683 46.8092 24.7496 46.6162C24.7201 46.3268 24.689 45.9178 24.6548 45.3649C24.5894 44.3157 24.5101 42.7274 24.4199 40.6412C24.2395 36.4935 24.0031 30.1862 23.7185 21.8938C23.6984 21.2851 23.9244 20.6935 24.347 20.2489C24.7695 19.8043 25.354 19.5431 25.972 19.5228C26.59 19.5025 27.1909 19.7247 27.6426 20.1406C28.0944 20.5565 28.3599 21.132 28.381 21.7406C28.4246 22.9904 28.465 24.1759 28.5055 25.3048C29.1301 24.6936 29.8229 24.1541 30.5708 23.6965C34.7698 21.1203 40.2722 21.2321 43.9456 23.9676C47.3873 26.5332 47.8647 30.2719 48.5848 35.9299C49.0358 39.4761 49.0358 43.0639 48.5848 46.6101C48.5529 46.9145 48.4596 47.2094 48.3104 47.4778C48.1612 47.7461 47.9591 47.9824 47.7159 48.1728C47.4728 48.3631 47.1934 48.5038 46.8943 48.5864C46.5952 48.669 46.2824 48.692 45.9742 48.6539C45.6659 48.6159 45.3685 48.5176 45.0994 48.3648C44.8303 48.2121 44.5948 48.0079 44.4069 47.7643C44.2189 47.5207 44.0823 47.2426 44.0049 46.9463C43.9276 46.65 43.9111 46.3415 43.9565 46.0388C44.3593 42.872 44.3593 39.668 43.9565 36.5012C43.2955 31.3196 42.9285 28.9715 41.1307 27.6313C39.0342 26.0706 35.5568 26.0553 33.0436 27.5977C30.168 29.3591 29.5786 32.5403 29.479 33.274C29.535 37.7311 29.563 41.1283 29.563 43.3737C29.563 44.5393 29.5552 45.394 29.5412 45.9868C29.5319 46.3115 29.5226 46.558 29.5086 46.7388C29.3733 48.5477 27.9938 49.0623 27.2006 49.0807L27.14 49.0822Z" fill="#FEF0D3"/>
</g>
<defs>
<clipPath id="clip0_116_18">
<rect width="60" height="62" fill="white"/>
</clipPath>
</defs>
</svg>
