<svg width="65" height="91" viewBox="0 0 65 91" fill="none" xmlns="http://www.w3.org/2000/svg">
<g id="Capa_1" clip-path="url(#clip0_84_8)">
<path id="Vector" d="M26.0806 91C24.6026 91.0185 23.1372 90.7251 21.7796 90.1388C18.3435 88.6156 15.6437 84.4121 13.7065 68.8402C11.8419 53.9003 12.0386 38.7741 14.2908 23.888C14.4764 22.8005 15.0802 21.8293 15.9724 21.1833C16.8646 20.5373 17.974 20.2681 19.0621 20.4335C20.1503 20.5988 21.1303 21.1856 21.7914 22.0677C22.4526 22.9498 22.7421 24.0567 22.5978 25.1505C20.4597 39.2682 20.2729 53.6139 22.0426 67.7828C23.3925 78.5683 24.9645 81.7553 25.4466 82.5081C26.4809 82.7278 29.0697 82.4085 33.2041 79.8718C44.1232 73.1521 55.6412 57.7501 56.5236 41.3112C57.6398 20.5135 47.4483 13.0849 44.2956 11.301C33.4613 5.14961 17.8877 8.95764 7.26664 20.3348C6.50393 21.145 5.45219 21.6193 4.34149 21.6539C3.23079 21.6885 2.15163 21.2806 1.34022 20.5194C0.528806 19.7583 0.0512211 18.7059 0.0119642 17.5925C-0.0272926 16.4792 0.374932 15.3956 1.13071 14.5789C14.3668 0.404229 34.2619 -4.05994 48.4271 3.96913C55.9743 8.24583 61.2133 15.7945 63.5741 25.8008C64.7708 31.0311 65.2203 36.4052 64.9094 41.7623C63.8692 61.0953 50.3818 79.1805 37.5957 87.0484C33.3385 89.6701 29.4349 91 26.0806 91Z" fill="#FD6D0D"/>
<path id="Vector_2" d="M38.0019 36.6918C36.7718 36.6918 37.1925 41.1149 34.0457 44.5392C30.6738 48.2066 25.7739 47.9459 25.8119 49.3373C25.8498 50.6321 30.0544 50.1722 33.3328 53.2274C37.0085 56.6575 36.5468 61.7222 37.9406 61.7397C39.3343 61.7573 38.969 56.5198 42.7908 53.0457C46.1013 50.0374 50.3176 50.4094 50.3117 49.2172C50.3059 48.025 45.8675 48.4498 42.5483 45.3243C38.896 41.8853 39.3343 36.683 38.0019 36.6918Z" fill="#934F4C"/>
</g>
<defs>
<clipPath id="clip0_84_8">
<rect width="65" height="91" fill="white"/>
</clipPath>
</defs>
</svg>
