<svg width="59" height="42" viewBox="0 0 59 42" fill="none" xmlns="http://www.w3.org/2000/svg">
<g id="Capa_1" clip-path="url(#clip0_116_16)">
<path id="Vector" d="M57.5375 2.16523C56.1443 0.787047 53.9153 -0.0109127 51.5469 0.000112769L7.63755 0.322619H7.31434C3.21569 0.35156 0.00585938 2.76062 0.00585938 5.80364V36.515C0.00585938 37.7553 0.524113 38.9089 1.50489 39.8653C1.61634 39.9728 1.73337 40.0762 1.85458 40.1768C1.87826 40.2043 1.90195 40.2333 1.92842 40.2595C2.10479 40.4372 2.31566 40.5778 2.54836 40.6729C3.87186 41.5122 5.5924 41.9905 7.39096 41.9905H7.54003L51.5246 41.3427C53.0701 41.3377 54.5884 40.94 55.934 40.1878C56.2643 40.0885 56.5604 39.9005 56.7894 39.6448C56.8219 39.6087 56.8526 39.571 56.8813 39.5318C58.0418 38.5671 58.7453 37.2991 58.7565 35.8962L59.0059 5.50869C59.01 4.30554 58.489 3.11066 57.5375 2.16523ZM7.34081 4.04646L51.5734 3.7212H51.625C53.2215 3.7212 54.35 4.27247 54.8766 4.7948C55.0451 4.96156 55.2458 5.21652 55.243 5.48389L54.9922 35.5902L38.9849 21.5149C43.0654 17.8379 48.326 13.0873 54.0003 7.95634C54.3685 7.62335 54.5879 7.15932 54.6102 6.66631C54.6325 6.1733 54.456 5.6917 54.1194 5.32747C53.7828 4.96323 53.3137 4.74617 52.8153 4.72408C52.317 4.70198 51.8301 4.87665 51.4619 5.20963C38.4053 17.0179 29.4097 25.1147 28.3677 26.0201C28.3398 25.9995 28.3147 25.9774 28.298 25.9636C27.5652 25.3627 20.1857 18.3216 5.70803 4.27936C6.23734 4.12735 6.78547 4.04896 7.33663 4.04646H7.34081ZM3.7618 35.9127V7.598C8.83148 12.514 14.2592 17.7593 18.4832 21.8153L3.7618 35.9127ZM51.4633 37.6299L7.47873 38.279C7.2303 38.2812 6.98194 38.2697 6.73479 38.2446L21.186 24.4049C23.7159 26.8222 25.4699 28.4733 25.8962 28.8247C26.6917 29.4766 27.5318 29.8074 28.3955 29.8074C28.4666 29.8074 28.5348 29.8074 28.6087 29.8005C29.4198 29.7384 30.1867 29.41 30.7876 28.8674C31.1818 28.5298 33.1559 26.7602 36.1874 24.0328L51.6514 37.6244C51.5859 37.6272 51.5246 37.6299 51.4633 37.6299Z" fill="#FEF0D3"/>
</g>
<defs>
<clipPath id="clip0_116_16">
<rect width="59" height="42" fill="white"/>
</clipPath>
</defs>
</svg>
