<svg width="1920" height="288" viewBox="0 0 1920 288" fill="none" xmlns="http://www.w3.org/2000/svg">
<path d="M2064.4 39.5401C2063.4 34.3001 2061.96 29.1801 2060.8 24.0001C2052.26 22.5701 2045.8 18.3101 2038.51 13.5001C2028.86 7.12011 2017.97 -0.0998941 2001.41 0.00010588C1984.85 0.100106 1975.76 7.61013 1967.78 14.2101C1960.65 20.1101 1954.49 25.2101 1942.47 26.8101C1927.85 28.7601 1918.99 23.5001 1907.77 16.8101C1895.93 9.8101 1882.55 1.81013 1860.92 2.21013C1841.8 2.57013 1831.33 9.32013 1822.1 15.2701C1813.63 20.7301 1806.31 25.4501 1791.9 25.6101C1775.39 25.7901 1764.72 19.8301 1753.39 13.5201C1751.68 12.5701 1749.97 11.6201 1748.23 10.6901C1739.59 5.17011 1729.57 -0.0999136 1715.41 -0.0199137C1698.81 0.100086 1689.76 7.59011 1681.78 14.1901C1674.65 20.0901 1668.49 25.1901 1656.47 26.7901C1641.85 28.7401 1632.99 23.4801 1621.77 16.7901C1609.93 9.79008 1596.55 1.79011 1574.92 2.19011C1555.8 2.55011 1545.33 9.30011 1536.1 15.2501C1527.63 20.7101 1520.31 25.4301 1505.9 25.5901C1489.39 25.7701 1478.72 19.8101 1467.39 13.5001C1461.83 10.2361 1456.04 7.38507 1450.06 4.97008C1442.99 1.60641 1435.24 -0.103439 1427.41 -0.0299234C1410.81 0.0900766 1401.76 7.5801 1393.78 14.1801C1386.65 20.0801 1380.49 25.1801 1368.47 26.7801C1353.85 28.7301 1344.99 23.4701 1333.77 16.7801C1321.93 9.78008 1308.55 1.7801 1286.92 2.1801C1267.8 2.5401 1257.33 9.2901 1248.1 15.2401C1239.63 20.7001 1232.31 25.4201 1217.9 25.5801C1201.39 25.7601 1190.72 19.8001 1179.39 13.4901C1177.68 12.5401 1175.97 11.5901 1174.23 10.6601C1165.59 5.14008 1155.57 -0.129882 1141.41 -0.0498819C1124.81 0.0701181 1115.76 7.56008 1107.78 14.1601C1100.65 20.0601 1094.49 25.1601 1082.47 26.7601C1067.85 28.7101 1058.99 23.4501 1047.77 16.7601C1035.93 9.76012 1022.55 1.76008 1000.92 2.16008C981.8 2.52008 971.33 9.27008 962.1 15.2201C953.63 20.6801 946.31 25.4001 931.9 25.5601C915.39 25.7401 904.72 19.7801 893.39 13.4701C891.68 12.5201 889.97 11.5701 888.23 10.6401C879.59 5.12012 869.57 -0.149901 855.41 -0.0699014C838.81 0.0500986 829.76 7.54012 821.78 14.1401C814.65 20.0401 808.49 25.1401 796.47 26.7401C781.85 28.6901 772.99 23.4301 761.77 16.7401C749.93 9.7401 736.55 1.74012 714.92 2.14012C695.8 2.50012 685.33 9.25012 676.1 15.2001C667.63 20.6601 660.31 25.3801 645.9 25.5401C629.39 25.7201 618.72 19.7601 607.39 13.4501C605.68 12.5001 603.97 11.5501 602.23 10.6201C593.59 5.1001 583.57 -0.169921 569.41 -0.089921C552.81 0.030079 543.76 7.5201 535.78 14.1201C528.65 20.0201 522.49 25.1201 510.47 26.7201C495.85 28.6701 486.99 23.4101 475.77 16.7201C463.93 9.72008 450.55 1.7201 428.92 2.1201C409.8 2.4801 399.33 9.2301 390.1 15.1801C381.63 20.6401 374.31 25.3601 359.9 25.5201C343.39 25.7001 332.72 19.7401 321.39 13.4301C313.15 8.8401 304.72 4.16008 294.34 2.04008C294.34 1.92008 294.34 1.79008 294.29 1.66008C289.757 0.476961 285.084 -0.0815065 280.4 0.00010588C263.8 0.120106 254.75 7.61013 246.77 14.2101C239.64 20.1101 233.48 25.2101 221.46 26.8101C206.84 28.7601 197.98 23.5001 186.76 16.8101C174.92 9.8101 161.54 1.81013 139.91 2.21013C120.79 2.57013 110.32 9.32013 101.09 15.2701C92.62 20.7301 85.3 25.4501 70.89 25.6101C54.38 25.7901 43.71 19.8301 32.38 13.5201C20.23 6.76013 7.66998 -0.229899 -10.94 1.1201C-32.11 2.6601 -52.32 14.4601 -71.03 36.1901C-72.4128 37.7988 -73.1001 39.8908 -72.9407 42.0061C-72.7813 44.1214 -71.7883 46.0868 -70.18 47.4701C-68.7311 48.7188 -66.8828 49.407 -64.97 49.4101C-63.8177 49.4112 -62.6788 49.1634 -61.6312 48.6836C-60.5835 48.2038 -59.6519 47.5033 -58.9 46.6301C-53.8696 40.6965 -48.2435 35.2948 -42.11 30.5101C-34.6167 133.137 -27.1134 235.757 -19.6 338.37L1958.4 339.37C1957.07 239.75 1955.73 140.127 1954.4 40.5001C1965.08 37.1501 1972.07 31.3901 1977.93 26.5001C1985.27 20.4201 1990.57 16.0401 2001.47 15.9601C2013.14 15.8801 2020.77 20.9601 2029.64 26.8001C2038.83 32.8801 2049.22 39.7101 2064.51 40.4101C2064.46 40.1501 2064.4 39.8401 2064.4 39.5401Z" fill="#FD6D0D"/>
</svg>
