<svg width="59" height="62" viewBox="0 0 59 62" fill="none" xmlns="http://www.w3.org/2000/svg">
<g id="icoBeha" clip-path="url(#clip0_114_63)">
<path id="Vector" d="M7.52563 61.8082C5.53023 61.8074 3.61676 61.0157 2.20564 59.607C0.794533 58.1984 0.00121581 56.288 0 54.2956V8.01366C0.00699754 6.03621 0.791109 4.14052 2.18364 2.73442C3.57617 1.32831 5.46584 0.524145 7.44611 0.494947L51.3857 0.00632968C52.385 -0.00483009 53.3765 0.182719 54.3024 0.558061C55.2284 0.933402 56.0703 1.48902 56.779 2.19253C57.4877 2.89603 58.0491 3.73337 58.4304 4.65571C58.8117 5.57804 59.0053 6.56693 59 7.56475L58.7538 53.3581C58.7443 55.3169 57.9697 57.1948 56.5948 58.5921C55.2199 59.9895 53.3532 60.796 51.3918 60.8402L7.69998 61.8174L7.52563 61.8082ZM7.49352 4.61164C6.59886 4.62445 5.745 4.98748 5.11576 5.62262C4.48651 6.25775 4.1322 7.1142 4.12908 8.00758V54.2956C4.12918 54.748 4.21976 55.1958 4.39552 55.6128C4.57128 56.0298 4.82867 56.4075 5.15259 56.7238C5.47652 57.0401 5.86045 57.2887 6.28187 57.4549C6.70329 57.6211 7.1537 57.7015 7.60669 57.6916L51.2985 56.7143C52.1856 56.6987 53.0311 56.3361 53.6531 55.7044C54.2752 55.0727 54.624 54.2225 54.6247 53.3367L54.8709 7.54339C54.8732 7.09271 54.7856 6.64607 54.6133 6.22952C54.441 5.81296 54.1875 5.43479 53.8674 5.11704C53.5473 4.79928 53.1671 4.5483 52.7489 4.37869C52.3307 4.20907 51.8829 4.12424 51.4315 4.1291L7.49352 4.61164Z" fill="#FEF0D3"/>
<path id="Vector_2" d="M18.8393 45.1336C16.6484 45.1156 14.4695 44.8075 12.3597 44.2174C11.9114 44.0955 11.515 43.8313 11.2303 43.4646C10.9456 43.098 10.7881 42.6489 10.7815 42.185L10.4756 20.8077C10.4695 20.3977 10.5815 19.9945 10.7985 19.6464C11.0154 19.2982 11.328 19.0197 11.6991 18.844C14.6323 17.4698 17.8331 17.0025 20.7081 17.5522C23.5832 18.1019 25.9964 19.6564 27.2932 21.8155C28.6482 24.0692 29.2553 27.7553 27.3865 30.5191C27.178 30.8274 26.9437 31.1176 26.6861 31.3864C27.983 32.0201 29.0244 32.9134 29.6591 34.1548C30.9834 36.7506 29.7493 39.4747 29.3394 40.2488C28.1527 42.4873 25.7303 44.0922 22.5188 44.764C21.3084 45.014 20.0753 45.1378 18.8393 45.1336ZM15.039 40.4611C20.5445 41.5681 24.5053 40.2427 25.5575 38.2546C25.8037 37.7965 26.1799 36.7475 25.8496 36.1032C25.4489 35.3198 23.8279 34.6877 21.5125 34.4144C20.9207 34.3441 20.3212 34.2998 19.7324 34.2738C18.1444 34.4376 16.5457 34.4739 14.9519 34.3823L15.039 40.4611ZM14.7775 22.2033L14.8907 30.0793H14.9412C16.4231 29.9969 17.9829 29.9465 19.5153 29.9923C22.1824 29.664 23.3462 28.8654 23.8401 28.1355C24.5895 27.0254 24.3203 25.1702 23.6275 24.0127C22.3888 21.959 18.7812 20.826 14.7775 22.2064V22.2033Z" fill="#FEF0D3"/>
<path id="Vector_3" d="M40.5445 44.2913C38.4463 44.3174 36.4067 43.6 34.7883 42.2665C31.6028 39.5852 31.2434 35.1861 32.3016 32.0161C33.259 29.1454 35.6217 26.5985 38.4708 25.3708C40.6363 24.4363 42.8537 24.3951 44.7134 25.2548C46.6173 26.1343 48.2445 28.0323 48.9602 30.2051C49.5184 31.897 49.4435 33.5247 48.7507 34.786C47.018 37.9437 41.8383 38.5576 36.1356 36.4C36.3099 37.3864 36.7473 38.3239 37.5471 38.9958C39.2125 40.3975 42.3858 40.5227 44.8128 38.2919C45.0199 38.1017 45.2626 37.9541 45.5268 37.8575C45.7911 37.761 46.0719 37.7173 46.3531 37.7291C46.6342 37.7409 46.9103 37.8078 47.1656 37.9261C47.4208 38.0444 47.6503 38.2118 47.8408 38.4186C48.0312 38.6254 48.1791 38.8677 48.2758 39.1316C48.3725 39.3955 48.4162 39.6758 48.4044 39.9565C48.3926 40.2373 48.3256 40.513 48.2071 40.7678C48.0886 41.0227 47.921 41.2518 47.7138 41.442C45.9237 43.1016 43.619 44.1 41.1822 44.2714C40.9651 44.2852 40.754 44.2913 40.5445 44.2913ZM36.9537 32.123C41.6945 34.1355 44.6858 33.2972 44.9947 32.7338C45.0421 32.6483 45.1247 32.2436 44.8923 31.5412C44.5451 30.4876 43.7499 29.521 42.9149 29.1347C41.9178 28.6766 40.7739 29.037 40.1622 29.2951C38.8361 29.9001 37.7195 30.8842 36.9537 32.123Z" fill="#FEF0D3"/>
<path id="Vector_4" d="M35.4016 22.7657C34.8337 22.7744 34.2857 22.5575 33.878 22.1628C33.4703 21.768 33.2364 21.2278 33.2277 20.6608C33.2189 20.0938 33.4361 19.5466 33.8315 19.1395C34.2268 18.7325 34.768 18.4989 35.3358 18.4902L45.1232 18.1848H45.1921C45.7599 18.1761 46.3079 18.393 46.7156 18.7877C47.1233 19.1825 47.3572 19.7228 47.3659 20.2897C47.3747 20.8567 47.1575 21.4039 46.7621 21.811C46.3668 22.218 45.8257 22.4516 45.2578 22.4603L35.4704 22.7657H35.4016Z" fill="#FEF0D3"/>
</g>
<defs>
<clipPath id="clip0_114_63">
<rect width="59" height="61.8095" fill="white"/>
</clipPath>
</defs>
</svg>
